<svg width="1024" height="1024" viewBox="0 0 1024 1024" fill="none" xmlns="http://www.w3.org/2000/svg">
<rect width="1024" height="1024" fill="white"/>
<path d="M332.941 362.588C336.81 362.588 339.782 363.282 340.506 363.451C341.692 363.728 342.648 364.034 343.137 364.191C344.125 364.508 344.884 364.81 345.192 364.931C345.89 365.206 346.467 365.456 346.672 365.548C347.154 365.762 347.597 365.955 347.864 366.082C348.47 366.371 349.228 366.727 350.002 367.11C351.589 367.894 353.82 369.024 356.621 370.44C362.258 373.289 370.398 377.484 380.671 382.773C401.232 393.36 430.426 408.512 465.196 426.927C465.514 427.095 465.828 427.282 466.141 427.461C471.341 430.438 478.361 434.534 483.737 439.26C486.439 441.637 491.411 446.432 494.672 453.813C498.656 462.839 499.128 473.599 494.631 483.619C490.949 491.817 485.137 496.758 482.051 499.118C478.626 501.735 475.057 503.732 472.308 505.161C466.891 507.975 459.823 510.988 452.903 513.959C423.296 526.669 367.412 550.551 308.11 576.324C291.248 583.651 271.621 575.914 264.286 559.058C256.956 542.193 264.691 522.566 281.552 515.233C324.328 496.643 365.411 479.067 396.047 465.941C378.023 456.502 362.559 448.333 350.208 441.973C340.034 436.735 332.018 432.64 326.569 429.887L319.58 426.392C319.69 426.441 320.152 426.641 320.772 426.885C320.945 426.953 321.329 427.047 321.8 427.214C308.898 422.626 299.641 410.364 299.641 395.888C299.641 377.497 314.55 362.588 332.941 362.588ZM325.377 428.324C325.431 428.337 325.501 428.347 325.582 428.365C325.319 428.306 325.062 428.225 324.801 428.16C324.987 428.207 325.175 428.277 325.377 428.324Z" fill="black"/>
<path d="M721.239 426.515C733.17 421.451 741.548 409.665 741.548 395.888C741.548 377.497 726.639 362.588 708.248 362.588C703.989 362.588 700.727 363.426 699.985 363.615C698.71 363.942 697.707 364.297 697.189 364.479C696.136 364.849 695.331 365.204 695.011 365.342C694.282 365.657 693.695 365.941 693.489 366.041C692.991 366.284 692.551 366.525 692.297 366.658C691.717 366.961 690.995 367.3 690.283 367.685C688.818 368.479 686.761 369.638 684.198 371.057C679.046 373.91 671.611 378.064 662.245 383.349C643.472 393.942 616.817 409.124 585.079 427.543C584.749 427.735 584.417 427.957 584.093 428.16C579.349 431.136 572.71 435.371 567.607 440.288C564.966 442.833 560.462 447.642 557.576 454.8C554.155 463.286 553.768 473.191 557.617 482.591C560.886 490.574 566.167 495.63 569.252 498.213C572.559 500.982 576.012 503.098 578.625 504.585C583.729 507.491 590.337 510.565 596.591 513.507C623.62 526.223 674.62 550.064 728.722 575.831C745.322 583.73 765.172 576.682 773.081 560.085C780.988 543.481 773.939 523.593 757.335 515.685C717.9 496.904 680.05 479.148 652.008 465.982C668.94 456.261 683.444 447.86 694.969 441.357C704.235 436.128 711.512 432.057 716.471 429.311C718.962 427.931 720.822 426.918 722.021 426.269C722.632 425.937 722.964 425.759 723.089 425.693C723.03 425.724 722.874 425.803 722.678 425.899C722.548 425.962 722.057 426.192 721.404 426.474C721.404 426.474 721.297 426.491 721.239 426.515ZM716.512 428.16C716.391 428.191 716.186 428.223 715.936 428.283C716.326 428.191 716.703 428.06 717.087 427.954C716.899 428.006 716.716 428.108 716.512 428.16Z" fill="black"/>
<path d="M435.87 563.014C454.249 562.651 469.455 577.234 469.828 595.615C470.112 609.55 475.928 618.477 485.08 624.886C495.292 632.036 510.696 636.444 528 636.069C545.288 635.692 560.99 630.604 571.455 622.954C581.092 615.908 586.09 607.155 586.09 595.533C586.09 577.144 601.002 562.236 619.39 562.233C637.781 562.233 652.69 577.142 652.69 595.533C652.69 631.287 635.085 658.943 610.757 676.728C587.255 693.907 557.611 702.056 529.439 702.669C501.293 703.278 471.109 696.431 446.847 679.441C421.529 661.704 403.974 633.603 403.228 596.972C402.854 578.585 417.483 563.388 435.87 563.014Z" fill="black"/>
<path d="M582.876 174.629C618.579 174.628 642.766 185.899 678.235 206.044C704.194 220.787 738.98 246.96 767.306 270.285C820.991 314.491 848.915 349.914 862.145 369.308C870.238 381.171 876.674 396.932 882.148 412.828C887.813 429.285 893.35 448.61 898.957 469.073C918.34 539.828 904.839 609.398 886.579 656.301C874.681 686.854 847.87 716.309 827.363 739.752C817.024 751.571 803.487 761.489 787.952 770.895C772.306 780.367 752.875 790.36 729.603 801.765C668.739 831.593 615.21 844.647 582.554 848.281C582.2 848.32 581.845 848.353 581.49 848.38C566.091 849.566 551.305 849.606 541.088 848.9C535.936 848.543 529.42 847.863 522.348 845.236C517.889 843.579 514.045 841.436 510.713 839.295C489.772 838.878 458.475 838.123 418.696 836.77C361.694 834.83 311.848 810.591 263.701 785.105C216.337 760.033 191.678 727.058 176.214 705.688C157.564 679.913 143.114 641.807 129.723 601.343C115.134 557.262 115.102 499.572 115.785 448.328C116.532 392.363 147.321 350.202 168.787 322.321C179.146 308.867 194.434 297.481 211.441 286.723C228.901 275.678 251.27 263.433 278.108 249.045C315.182 229.169 370.138 209.177 406.69 196.612C468.045 175.521 528.39 174.63 582.876 174.629ZM582.876 238.004C528.233 238.005 477.583 239.267 427.311 256.546C390.453 269.216 340.05 287.747 308.063 304.893C281.01 319.397 260.584 330.646 245.332 340.294C229.628 350.228 222.28 356.752 219.017 360.99C197.609 388.793 179.601 416.096 179.16 449.17C178.444 502.827 179.274 549.29 189.904 581.415C203.535 622.602 215.41 651.738 227.557 668.53C241.506 687.806 259.178 711.026 293.333 729.107C341.759 754.741 379.973 772.054 420.85 773.445C458.365 774.721 488.2 775.447 508.757 775.871C519.031 776.082 526.986 776.213 532.424 776.292C537.878 776.37 540.62 776.39 540.717 776.391C549.545 776.391 557.523 780.022 563.269 785.847C567.248 785.736 571.542 785.561 575.994 785.228C601.038 782.373 647.296 771.515 701.703 744.852C724.775 733.545 742.051 724.596 755.126 716.68C768.306 708.7 775.529 702.76 779.659 698.039C803.312 670.999 820.633 651.036 827.537 633.303C842.532 594.785 852.573 539.602 837.835 485.808C832.27 465.497 827.172 447.85 822.214 433.45C817.063 418.489 812.87 409.489 809.811 405.005C799.952 390.553 776.054 359.592 727.004 319.202C699.351 296.433 667.995 273.107 646.944 261.15C613.523 242.169 601.38 238.003 582.876 238.004Z" fill="black"/>
</svg>
